<svg xmlns="http://www.w3.org/2000/svg" viewBox="0 0 64 64" role="img" aria-label="Juma">
  <defs>
    <radialGradient id="jumaJaguarGold" cx="32%" cy="24%" r="74%">
      <stop offset="0" stop-color="#ffe28a"/>
      <stop offset="0.58" stop-color="#f6a62f"/>
      <stop offset="1" stop-color="#d97918"/>
    </radialGradient>
    <filter id="jumaPawShadow" x="-16%" y="-16%" width="132%" height="132%">
      <feDropShadow dx="0" dy="1.5" stdDeviation="1.3" flood-color="#0f172a" flood-opacity="0.22"/>
    </filter>
  </defs>
  <circle cx="32" cy="32" r="29" fill="#123047"/>
  <circle cx="32" cy="32" r="25.5" fill="url(#jumaJaguarGold)" filter="url(#jumaPawShadow)"/>
  <ellipse cx="17.5" cy="29.2" rx="6.2" ry="8.8" transform="rotate(-17 17.5 29.2)" fill="#211915"/>
  <ellipse cx="27.2" cy="19.8" rx="6.6" ry="9.4" transform="rotate(-6 27.2 19.8)" fill="#211915"/>
  <ellipse cx="38.2" cy="19.8" rx="6.6" ry="9.4" transform="rotate(6 38.2 19.8)" fill="#211915"/>
  <ellipse cx="47.4" cy="29.2" rx="6.2" ry="8.8" transform="rotate(17 47.4 29.2)" fill="#211915"/>
  <path d="M32.2 31.8c5 0 14.4 9.4 14.4 15.7 0 4.6-3.8 7.2-9.2 6.4-2-.3-3.4-.9-5.2-.9-1.9 0-3.3.6-5.3.9-5.4.8-9.2-1.8-9.2-6.4 0-6.3 9.4-15.7 14.5-15.7z" fill="#211915"/>
  <path d="M25.2 43.5c2.1-3.8 4.8-6.2 7-6.2 2.4 0 5.1 2.5 7.2 6.4" fill="none" stroke="#3a2a1d" stroke-width="1.4" stroke-linecap="round" opacity="0.38"/>
</svg>
